<?xml version="1.0" encoding="UTF-8"?><svg id="Layer_2" xmlns="http://www.w3.org/2000/svg" viewBox="0 0 916.18 196.79"><defs><style>.cls-1,.cls-2{fill:#fff;}.cls-2{font-family:Helvetica, Helvetica;font-size:146.9px;}.cls-3{fill:#ff2b06;}</style></defs><g id="Layer_1-2"><path class="cls-3" d="M10.6,172.43l-7.57-10.91h7.21l4.05,6.01,4.01-6.01h6.99l-7.57,10.77,8.5,12.24h-7.21l-4.81-7.25-4.81,7.25H2.33l8.28-12.11Z"/><path class="cls-1" d="M56.18,170.92h-22.48v-4.76h22.48v4.76Zm0,9.53h-22.48v-4.76h22.48v4.76Z"/><path class="cls-1" d="M73.4,157.97h-6.32v-5.21h6.32v5.21Zm-6.32,3.56h6.32v23.01h-6.32v-23.01Z"/><path class="cls-1" d="M77.5,161.53h6.01v3.2h.13c1.6-2.58,4.36-3.83,7.03-3.83,6.72,0,8.41,3.78,8.41,9.48v14.15h-6.32v-13c0-3.78-1.11-5.65-4.05-5.65-3.43,0-4.9,1.91-4.9,6.59v12.06h-6.32v-23.01Z"/><path class="cls-1" d="M119.42,181.6h-.09c-1.47,2.49-4.05,3.56-6.99,3.56-6.94,0-10.33-5.96-10.33-12.33s3.43-11.93,10.19-11.93c2.71,0,5.39,1.16,6.85,3.43h.04v-11.57h6.32v31.78h-6.01v-2.94Zm-5.52-15.93c-4.14,0-5.56,3.56-5.56,7.34s1.65,7.39,5.56,7.39c4.18,0,5.43-3.65,5.43-7.43s-1.34-7.3-5.43-7.3Z"/><path class="cls-1" d="M134.51,174.57c.18,4.01,2.14,5.83,5.65,5.83,2.54,0,4.58-1.56,4.98-2.98h5.56c-1.78,5.43-5.56,7.74-10.77,7.74-7.26,0-11.75-4.98-11.75-12.11s4.76-12.15,11.75-12.15c7.83,0,11.62,6.59,11.17,13.66h-16.6Zm10.28-4.01c-.58-3.2-1.96-4.9-5.03-4.9-4.01,0-5.16,3.12-5.25,4.9h10.28Z"/><path class="cls-1" d="M153.96,161.53h6.01v2.94h.09c1.51-2.45,4.01-3.56,6.85-3.56,7.21,0,10.46,5.83,10.46,12.37,0,6.14-3.38,11.88-10.1,11.88-2.76,0-5.39-1.2-6.9-3.47h-.09v10.95h-6.32v-31.11Zm17.09,11.57c0-3.65-1.47-7.43-5.52-7.43s-5.47,3.69-5.47,7.43,1.42,7.3,5.52,7.3,5.47-3.56,5.47-7.3Z"/><path class="cls-1" d="M185.47,174.57c.18,4.01,2.14,5.83,5.65,5.83,2.54,0,4.58-1.56,4.98-2.98h5.56c-1.78,5.43-5.56,7.74-10.77,7.74-7.26,0-11.75-4.98-11.75-12.11s4.76-12.15,11.75-12.15c7.83,0,11.62,6.59,11.17,13.66h-16.6Zm10.28-4.01c-.58-3.2-1.96-4.9-5.03-4.9-4.01,0-5.16,3.12-5.25,4.9h10.28Z"/><path class="cls-1" d="M204.92,161.53h6.01v3.2h.13c1.6-2.58,4.36-3.83,7.03-3.83,6.72,0,8.41,3.78,8.41,9.48v14.15h-6.32v-13c0-3.78-1.11-5.65-4.05-5.65-3.43,0-4.9,1.91-4.9,6.59v12.06h-6.32v-23.01Z"/><path class="cls-1" d="M246.85,181.6h-.09c-1.47,2.49-4.05,3.56-6.99,3.56-6.94,0-10.33-5.96-10.33-12.33s3.43-11.93,10.19-11.93c2.71,0,5.39,1.16,6.85,3.43h.04v-11.57h6.32v31.78h-6.01v-2.94Zm-5.52-15.93c-4.14,0-5.56,3.56-5.56,7.34s1.65,7.39,5.56,7.39c4.18,0,5.43-3.65,5.43-7.43s-1.34-7.3-5.43-7.3Z"/><path class="cls-1" d="M261.93,174.57c.18,4.01,2.14,5.83,5.65,5.83,2.54,0,4.58-1.56,4.98-2.98h5.56c-1.78,5.43-5.56,7.74-10.77,7.74-7.26,0-11.75-4.98-11.75-12.11s4.76-12.15,11.75-12.15c7.83,0,11.62,6.59,11.17,13.66h-16.6Zm10.28-4.01c-.58-3.2-1.96-4.9-5.03-4.9-4.01,0-5.16,3.12-5.25,4.9h10.28Z"/><path class="cls-1" d="M281.38,161.53h6.01v3.2h.13c1.6-2.58,4.36-3.83,7.03-3.83,6.72,0,8.41,3.78,8.41,9.48v14.15h-6.32v-13c0-3.78-1.11-5.65-4.05-5.65-3.43,0-4.9,1.91-4.9,6.59v12.06h-6.32v-23.01Z"/><path class="cls-1" d="M314.9,161.53h4.63v4.23h-4.63v11.39c0,2.14,.53,2.67,2.67,2.67,.67,0,1.29-.04,1.96-.18v4.94c-1.07,.18-2.45,.22-3.69,.22-3.87,0-7.26-.89-7.26-5.47v-13.58h-3.83v-4.23h3.83v-6.9h6.32v6.9Z"/><path class="cls-1" d="M321.84,152.76h6.32v31.78h-6.32v-31.78Z"/><path class="cls-1" d="M343.6,187.43c-1.38,3.69-3.56,5.21-7.92,5.21-1.29,0-2.58-.09-3.87-.22v-5.21c1.2,.09,2.45,.27,3.69,.22,2.18-.22,2.89-2.49,2.18-4.32l-8.1-21.59h6.77l5.21,15.76h.09l5.03-15.76h6.54l-9.61,25.9Z"/><path class="cls-1" d="M377.12,160.9c7.25,0,11.93,4.81,11.93,12.15s-4.67,12.11-11.93,12.11-11.88-4.81-11.88-12.11,4.67-12.15,11.88-12.15Zm0,19.5c4.32,0,5.61-3.69,5.61-7.34s-1.29-7.39-5.61-7.39-5.56,3.69-5.56,7.39,1.29,7.34,5.56,7.34Z"/><path class="cls-1" d="M391.36,161.53h6.01v4.27h.09c1.16-2.89,4.27-4.9,7.34-4.9,.44,0,.98,.09,1.38,.22v5.87c-.58-.13-1.51-.22-2.27-.22-4.63,0-6.23,3.34-6.23,7.39v10.37h-6.32v-23.01Z"/><path class="cls-1" d="M429.9,183.07c0,3.78-1.34,10.19-11.93,10.19-4.54,0-9.84-2.14-10.15-7.39h6.28c.58,2.36,2.49,3.16,4.72,3.16,3.52,0,5.12-2.4,5.07-5.7v-3.03h-.09c-1.38,2.4-4.14,3.56-6.9,3.56-6.9,0-9.84-5.25-9.84-11.57,0-5.96,3.43-11.39,9.88-11.39,3.03,0,5.34,1.02,6.85,3.69h.09v-3.07h6.01v21.54Zm-6.01-10.33c0-3.74-1.29-7.08-5.39-7.08-3.56,0-5.12,3.12-5.12,6.54s1.25,6.9,5.12,6.9c3.61,0,5.39-3.07,5.39-6.36Z"/><path class="cls-1" d="M432.93,168.6c.36-5.92,5.65-7.7,10.82-7.7,4.58,0,10.1,1.02,10.1,6.54v11.97c0,2.09,.22,4.18,.8,5.12h-6.41c-.22-.71-.4-1.47-.44-2.23-2,2.09-4.94,2.85-7.75,2.85-4.36,0-7.83-2.18-7.83-6.9,0-5.21,3.92-6.45,7.83-6.99,3.87-.58,7.48-.44,7.48-3.03,0-2.72-1.87-3.12-4.1-3.12-2.4,0-3.96,.98-4.18,3.47h-6.32Zm14.6,4.67c-1.07,.94-3.29,.98-5.25,1.34-1.96,.4-3.74,1.07-3.74,3.38s1.83,2.94,3.87,2.94c4.94,0,5.12-3.92,5.12-5.3v-2.36Z"/><path class="cls-1" d="M457.85,161.53h6.01v3.2h.13c1.6-2.58,4.36-3.83,7.03-3.83,6.72,0,8.41,3.78,8.41,9.48v14.15h-6.32v-13c0-3.78-1.11-5.65-4.05-5.65-3.43,0-4.9,1.91-4.9,6.59v12.06h-6.32v-23.01Z"/><path class="cls-1" d="M488.96,157.97h-6.32v-5.21h6.32v5.21Zm-6.32,3.56h6.32v23.01h-6.32v-23.01Z"/><path class="cls-1" d="M491.63,179.78l11.97-13.49h-11.08v-4.76h19.41v4.76l-11.97,13.49h12.82v4.76h-21.14v-4.76Z"/><path class="cls-1" d="M520.47,174.57c.18,4.01,2.14,5.83,5.65,5.83,2.54,0,4.58-1.56,4.99-2.98h5.56c-1.78,5.43-5.56,7.74-10.77,7.74-7.25,0-11.75-4.98-11.75-12.11s4.76-12.15,11.75-12.15c7.83,0,11.62,6.59,11.17,13.66h-16.6Zm10.28-4.01c-.58-3.2-1.96-4.9-5.03-4.9-4.01,0-5.16,3.12-5.25,4.9h10.28Z"/><path class="cls-1" d="M556.35,181.6h-.09c-1.47,2.49-4.05,3.56-6.99,3.56-6.94,0-10.33-5.96-10.33-12.33s3.43-11.93,10.19-11.93c2.71,0,5.39,1.16,6.85,3.43h.04v-11.57h6.32v31.78h-6.01v-2.94Zm-5.52-15.93c-4.14,0-5.56,3.56-5.56,7.34s1.65,7.39,5.56,7.39c4.18,0,5.43-3.65,5.43-7.43s-1.33-7.3-5.43-7.3Z"/><path class="cls-1" d="M585.41,158.63h-9.52v-5.88h26.04v5.88h-9.53v25.9h-6.99v-25.9Z"/><path class="cls-1" d="M604.68,152.76h23.77v5.88h-16.78v6.81h15.4v5.43h-15.4v7.79h17.14v5.88h-24.12v-31.78Z"/><path class="cls-1" d="M631.74,152.76h13.71c8.23,0,14.42,5.16,14.42,15.71,0,9.21-4.72,16.07-14.42,16.07h-13.71v-31.78Zm6.99,25.9h6.23c4.05,0,7.92-2.49,7.92-9.52,0-6.41-2.23-10.5-9.17-10.5h-4.98v20.03Z"/><path class="cls-1" d="M679.85,174.57c.18,4.01,2.14,5.83,5.65,5.83,2.54,0,4.58-1.56,4.99-2.98h5.56c-1.78,5.43-5.56,7.74-10.77,7.74-7.25,0-11.75-4.98-11.75-12.11s4.76-12.15,11.75-12.15c7.83,0,11.62,6.59,11.17,13.66h-16.6Zm10.28-4.01c-.58-3.2-1.96-4.9-5.03-4.9-4.01,0-5.16,3.12-5.25,4.9h10.28Z"/><path class="cls-1" d="M711.14,184.54h-7.03l-7.88-23.01h6.63l4.85,15.71h.09l4.85-15.71h6.28l-7.79,23.01Z"/><path class="cls-1" d="M724.98,174.57c.18,4.01,2.14,5.83,5.65,5.83,2.54,0,4.58-1.56,4.99-2.98h5.56c-1.78,5.43-5.56,7.74-10.77,7.74-7.25,0-11.75-4.98-11.75-12.11s4.76-12.15,11.75-12.15c7.83,0,11.62,6.59,11.17,13.66h-16.6Zm10.28-4.01c-.58-3.2-1.96-4.9-5.03-4.9-4.01,0-5.16,3.12-5.25,4.9h10.28Z"/><path class="cls-1" d="M744.43,161.53h6.01v3.2h.13c1.6-2.58,4.36-3.83,7.03-3.83,6.72,0,8.41,3.78,8.41,9.48v14.15h-6.32v-13c0-3.78-1.11-5.65-4.05-5.65-3.43,0-4.9,1.91-4.9,6.59v12.06h-6.32v-23.01Z"/><path class="cls-1" d="M777.94,161.53h4.63v4.23h-4.63v11.39c0,2.14,.53,2.67,2.67,2.67,.67,0,1.29-.04,1.96-.18v4.94c-1.07,.18-2.45,.22-3.69,.22-3.87,0-7.25-.89-7.25-5.47v-13.58h-3.83v-4.23h3.83v-6.9h6.32v6.9Z"/><g><g><path class="cls-3" d="M29.65,47.62H0V20.5H91.88v27.12h-29.64V126.31H29.65V47.62Z"/><path class="cls-3" d="M96.94,20.5h89.19v27.12h-56.59v13.19h56.59v25.2h-56.59v13.19h56.6v27.12H96.94V20.5Z"/><path class="cls-3" d="M191.62,20.5h53.5c35.27,0,47.73,26.08,47.73,52.75,0,32.47-17.19,53.06-54.1,53.06h-47.13V20.5Zm32.6,78.7h12.75c20.31,0,23.28-16.46,23.28-26.4,0-6.66-2.09-25.18-25.65-25.18h-10.38v51.58Z"/></g><path class="cls-3" d="M339.7,85.53l-9.95-16.49-9.7,16.49h-23.89l22.68-33.35-21.84-31.9h23.89l8.85,15.77,9.1-15.77h23.89l-21.83,31.9,22.68,33.35h-23.89Z"/></g><text class="cls-2" transform="translate(377.56 126.14)"><tspan x="0" y="0">HCMUS</tspan></text></g></svg>